<?xml version="1.0"?>
<svg version="1.1" xmlns="http://www.w3.org/2000/svg" width="400px" height="82px" style="border: 2px solid grey;border-radius: 25px;"><path fill="#262829" d="M41.556640625,62.591796875q1.71875,0,4.125-0.751953125l0,4.876953125q-2.44921875,1.095703125-6.015625,1.095703125q-3.931640625,0-5.7255859375-1.9873046875t-1.7939453125-5.9619140625l0-11.580078125l-3.13671875,0l0-2.771484375l3.609375-2.19140625l1.890625-5.0703125l4.189453125,0l0,5.11328125l6.724609375,0l0,4.919921875l-6.724609375,0l0,11.580078125q0,1.396484375,0.7841796875,2.0625t2.0732421875,0.666015625z M68.81537109375,67.3828125l-1.267578125-3.265625l-0.171875,0q-1.654296875,2.083984375-3.4052734375,2.8896484375t-4.5654296875,0.8056640625q-3.458984375,0-5.4462890625-1.9765625t-1.9873046875-5.62890625q0-3.82421875,2.6748046875-5.6396484375t8.0673828125-2.0087890625l4.16796875-0.12890625l0-1.052734375q0-3.65234375-3.73828125-3.65234375q-2.87890625,0-6.767578125,1.740234375l-2.169921875-4.42578125q4.146484375-2.169921875,9.1953125-2.169921875q4.833984375,0,7.412109375,2.10546875t2.578125,6.40234375l0,16.005859375l-4.576171875,0z M66.88177734375,56.25390625l-2.53515625,0.0859375q-2.857421875,0.0859375-4.25390625,1.03125t-1.396484375,2.87890625q0,2.771484375,3.1796875,2.771484375q2.27734375,0,3.6416015625-1.310546875t1.3642578125-3.48046875l0-1.9765625z M99.9198046875,60.25q0,3.6953125-2.5673828125,5.62890625t-7.6806640625,1.93359375q-2.62109375,0-4.46875-0.3544921875t-3.458984375-1.0419921875l0-5.4140625q1.826171875,0.859375,4.1142578125,1.439453125t4.0283203125,0.580078125q3.56640625,0,3.56640625-2.0625q0-0.7734375-0.47265625-1.2568359375t-1.6328125-1.095703125t-3.09375-1.4287109375q-2.771484375-1.16015625-4.0712890625-2.1484375t-1.890625-2.2666015625t-0.5908203125-3.1474609375q0-3.201171875,2.4814453125-4.9521484375t7.0361328125-1.7509765625q4.33984375,0,8.443359375,1.890625l-1.9765625,4.7265625q-1.8046875-0.7734375-3.373046875-1.267578125t-3.201171875-0.494140625q-2.900390625,0-2.900390625,1.568359375q0,0.880859375,0.9345703125,1.525390625t4.0927734375,1.912109375q2.814453125,1.138671875,4.125,2.126953125t1.93359375,2.27734375t0.623046875,3.072265625z M118.17658203125,62.591796875q1.71875,0,4.125-0.751953125l0,4.876953125q-2.44921875,1.095703125-6.015625,1.095703125q-3.931640625,0-5.7255859375-1.9873046875t-1.7939453125-5.9619140625l0-11.580078125l-3.13671875,0l0-2.771484375l3.609375-2.19140625l1.890625-5.0703125l4.189453125,0l0,5.11328125l6.724609375,0l0,4.919921875l-6.724609375,0l0,11.580078125q0,1.396484375,0.7841796875,2.0625t2.0732421875,0.666015625z M126.74390625,43.36328125l7.17578125,0l4.533203125,13.513671875q0.580078125,1.76171875,0.794921875,4.16796875l0.12890625,0q0.236328125-2.212890625,0.923828125-4.16796875l4.447265625-13.513671875l7.025390625,0l-10.162109375,27.091796875q-1.396484375,3.759765625-3.9853515625,5.62890625t-6.0478515625,1.869140625q-1.697265625,0-3.330078125-0.365234375l0-5.19921875q1.181640625,0.279296875,2.578125,0.279296875q1.740234375,0,3.0400390625-1.0634765625t2.0302734375-3.2119140625l0.38671875-1.181640625z M186.0953515625,42.912109375q1.33203125,0,2.212890625,0.193359375l-0.494140625,6.14453125q-0.794921875-0.21484375-1.93359375-0.21484375q-3.13671875,0-4.8876953125,1.611328125t-1.7509765625,4.51171875l0,12.224609375l-6.552734375,0l0-24.01953125l4.962890625,0l0.966796875,4.0390625l0.322265625,0q1.1171875-2.01953125,3.0185546875-3.2548828125t4.1357421875-1.2353515625z M205.64119140625,47.57421875q-2.083984375,0-3.265625,1.3212890625t-1.353515625,3.7490234375l9.1953125,0q-0.04296875-2.427734375-1.267578125-3.7490234375t-3.30859375-1.3212890625z M206.56501953125,67.8125q-5.80078125,0-9.06640625-3.201171875t-3.265625-9.06640625q0-6.037109375,3.0185546875-9.3349609375t8.3466796875-3.2978515625q5.091796875,0,7.927734375,2.900390625t2.8359375,8.013671875l0,3.1796875l-15.490234375,0q0.107421875,2.79296875,1.654296875,4.361328125t4.33984375,1.568359375q2.169921875,0,4.103515625-0.451171875t4.0390625-1.439453125l0,5.0703125q-1.71875,0.859375-3.673828125,1.2783203125t-4.76953125,0.4189453125z M234.46828125,67.8125q-11.21484375,0-11.21484375-12.310546875q0-6.123046875,3.05078125-9.3564453125t8.744140625-3.2333984375q4.16796875,0,7.4765625,1.6328125l-1.93359375,5.0703125q-1.546875-0.623046875-2.87890625-1.0205078125t-2.6640625-0.3974609375q-5.11328125,0-5.11328125,7.26171875q0,7.046875,5.11328125,7.046875q1.890625,0,3.501953125-0.5048828125t3.22265625-1.5791015625l0,5.607421875q-1.58984375,1.009765625-3.2119140625,1.396484375t-4.0927734375,0.38671875z M250.08248046875,37.154296875q0-3.201171875,3.56640625-3.201171875t3.56640625,3.201171875q0,1.525390625-0.8916015625,2.3740234375t-2.6748046875,0.8486328125q-3.56640625,0-3.56640625-3.22265625z M256.91451171875,67.3828125l-6.552734375,0l0-24.01953125l6.552734375,0l0,24.01953125z M280.0052734375,67.8125q-4.232421875,0-6.638671875-3.072265625l-0.34375,0q0.34375,3.0078125,0.34375,3.48046875l0,9.732421875l-6.552734375,0l0-34.58984375l5.328125,0l0.923828125,3.115234375l0.30078125,0q2.298828125-3.56640625,6.810546875-3.56640625q4.25390625,0,6.66015625,3.287109375t2.40625,9.130859375q0,3.845703125-1.1279296875,6.681640625t-3.2119140625,4.318359375t-4.8984375,1.482421875z M278.0716796875,48.154296875q-2.427734375,0-3.544921875,1.4931640625t-1.16015625,4.9306640625l0,0.708984375q0,3.8671875,1.1494140625,5.54296875t3.6416015625,1.67578125q4.404296875,0,4.404296875-7.26171875q0-3.544921875-1.0849609375-5.3173828125t-3.4052734375-1.7724609375z M307.62923828125,47.57421875q-2.083984375,0-3.265625,1.3212890625t-1.353515625,3.7490234375l9.1953125,0q-0.04296875-2.427734375-1.267578125-3.7490234375t-3.30859375-1.3212890625z M308.55306640625,67.8125q-5.80078125,0-9.06640625-3.201171875t-3.265625-9.06640625q0-6.037109375,3.0185546875-9.3349609375t8.3466796875-3.2978515625q5.091796875,0,7.927734375,2.900390625t2.8359375,8.013671875l0,3.1796875l-15.490234375,0q0.107421875,2.79296875,1.654296875,4.361328125t4.33984375,1.568359375q2.169921875,0,4.103515625-0.451171875t4.0390625-1.439453125l0,5.0703125q-1.71875,0.859375-3.673828125,1.2783203125t-4.76953125,0.4189453125z M343.460234375,60.25q0,3.6953125-2.5673828125,5.62890625t-7.6806640625,1.93359375q-2.62109375,0-4.46875-0.3544921875t-3.458984375-1.0419921875l0-5.4140625q1.826171875,0.859375,4.1142578125,1.439453125t4.0283203125,0.580078125q3.56640625,0,3.56640625-2.0625q0-0.7734375-0.47265625-1.2568359375t-1.6328125-1.095703125t-3.09375-1.4287109375q-2.771484375-1.16015625-4.0712890625-2.1484375t-1.890625-2.2666015625t-0.5908203125-3.1474609375q0-3.201171875,2.4814453125-4.9521484375t7.0361328125-1.7509765625q4.33984375,0,8.443359375,1.890625l-1.9765625,4.7265625q-1.8046875-0.7734375-3.373046875-1.267578125t-3.201171875-0.494140625q-2.900390625,0-2.900390625,1.568359375q0,0.880859375,0.9345703125,1.525390625t4.0927734375,1.912109375q2.814453125,1.138671875,4.125,2.126953125t1.93359375,2.27734375t0.623046875,3.072265625z"/><path fill="#" d=""/></svg>
